<svg xmlns="http://www.w3.org/2000/svg" width="68.394" height="54.683" viewBox="0 0 68.394 54.683">
  <g id="adv_icon_5" transform="translate(2990.686 -2147.517)">
    <path id="Контур_73" data-name="Контур 73" d="M-2951.771,2178.265h-34.168a3.1,3.1,0,0,1-3.1-3.1v-22.638a5.015,5.015,0,0,1,5.009-5.009h30.352a5.014,5.014,0,0,1,5.008,5.009v22.638A3.1,3.1,0,0,1-2951.771,2178.265Zm-32.26-28.363a2.627,2.627,0,0,0-2.624,2.624v22.638a.716.716,0,0,0,.716.715h34.168a.716.716,0,0,0,.715-.715v-22.638a2.627,2.627,0,0,0-2.623-2.624Z" fill="#fff"/>
    <path id="Контур_74" data-name="Контур 74" d="M-2929.33,2171.206h-11.988a1.192,1.192,0,0,1-1.192-1.192,1.192,1.192,0,0,1,1.192-1.193h11.988a1.193,1.193,0,0,1,1.192,1.193A1.193,1.193,0,0,1-2929.33,2171.206Z" fill="#fff"/>
    <path id="Контур_75" data-name="Контур 75" d="M-2939.7,2185.323a1.193,1.193,0,0,1-1.193-1.193v-14.116a1.193,1.193,0,0,1,1.193-1.193,1.193,1.193,0,0,1,1.192,1.193v14.116A1.193,1.193,0,0,1-2939.7,2185.323Z" fill="#fff"/>
    <path id="Контур_76" data-name="Контур 76" d="M-2927.62,2185.323a1.193,1.193,0,0,1-1.193-1.193v-1.251a5.335,5.335,0,0,1,5.329-5.328,1.192,1.192,0,0,1,1.192,1.192,1.192,1.192,0,0,1-1.192,1.193,2.947,2.947,0,0,0-2.944,2.943v1.251A1.193,1.193,0,0,1-2927.62,2185.323Z" fill="#fff"/>
    <path id="Контур_77" data-name="Контур 77" d="M-2944.7,2173.361h-5.163a1.192,1.192,0,0,1-1.193-1.192v-7.616a1.193,1.193,0,0,1,1.193-1.193h5.163a1.193,1.193,0,0,1,1.193,1.193v7.616A1.192,1.192,0,0,1-2944.7,2173.361Zm-3.971-2.385h2.779v-5.231h-2.779Z" fill="#fff"/>
    <path id="Контур_78" data-name="Контур 78" d="M-2944.7,2155.91h-1.107a1.193,1.193,0,0,1-1.193-1.193,1.193,1.193,0,0,1,1.193-1.193h1.107a1.193,1.193,0,0,1,1.193,1.193A1.193,1.193,0,0,1-2944.7,2155.91Z" fill="#fff"/>
    <path id="Контур_79" data-name="Контур 79" d="M-2934.2,2181.607a2.511,2.511,0,0,1-2.508-2.508v-2.152a1.192,1.192,0,0,1,1.192-1.192,1.193,1.193,0,0,1,1.193,1.192v2.152a.123.123,0,0,0,.123.123,1.193,1.193,0,0,1,1.193,1.193A1.193,1.193,0,0,1-2934.2,2181.607Z" fill="#fff"/>
    <path id="Контур_80" data-name="Контур 80" d="M-2928.522,2191.7h-56.927a5.243,5.243,0,0,1-5.237-5.237v-2.287a2.48,2.48,0,0,1,2.477-2.477h42.317v-26.983a1.192,1.192,0,0,1,1.192-1.193h3.267a12.194,12.194,0,0,1,11.879,9.639l1.206,5.726a7.05,7.05,0,0,1,6.056,6.972v9.61A6.237,6.237,0,0,1-2928.522,2191.7Zm-59.687-7.616a.091.091,0,0,0-.092.092v2.287a2.855,2.855,0,0,0,2.852,2.852h56.927a3.849,3.849,0,0,0,3.845-3.845v-9.61a4.659,4.659,0,0,0-4.653-4.655,1.192,1.192,0,0,1-1.167-.946l-1.391-6.6a9.8,9.8,0,0,0-9.545-7.745h-2.074v26.982a1.193,1.193,0,0,1-1.193,1.193Z" fill="#fff"/>
    <path id="Контур_81" data-name="Контур 81" d="M-2939.816,2202.2a8.964,8.964,0,0,1-8.953-8.954,8.932,8.932,0,0,1,.582-3.159,1.194,1.194,0,0,1,1.116-.771h14.51a1.192,1.192,0,0,1,1.115.771,8.92,8.92,0,0,1,.584,3.159A8.964,8.964,0,0,1-2939.816,2202.2Zm-6.38-10.5a6.469,6.469,0,0,0-.188,1.545,6.576,6.576,0,0,0,6.568,6.569,6.576,6.576,0,0,0,6.568-6.569,6.433,6.433,0,0,0-.189-1.545Z" fill="#fff"/>
    <path id="Контур_82" data-name="Контур 82" d="M-2973.162,2202.2a8.963,8.963,0,0,1-8.953-8.954,8.911,8.911,0,0,1,.583-3.159,1.192,1.192,0,0,1,1.115-.771h14.51a1.192,1.192,0,0,1,1.116.771,8.911,8.911,0,0,1,.583,3.159A8.964,8.964,0,0,1-2973.162,2202.2Zm-6.379-10.5a6.421,6.421,0,0,0-.189,1.545,6.576,6.576,0,0,0,6.568,6.569,6.577,6.577,0,0,0,6.569-6.569,6.47,6.47,0,0,0-.189-1.545Z" fill="#fff"/>
    <path id="Контур_83" data-name="Контур 83" d="M-2938.9,2166.643a1.2,1.2,0,0,1-.565-.142,1.193,1.193,0,0,1-.484-1.616l1.734-3.22a1.193,1.193,0,0,1,1.615-.484,1.192,1.192,0,0,1,.485,1.615l-1.734,3.22A1.192,1.192,0,0,1-2938.9,2166.643Z" fill="#fff"/>
    <path id="Контур_84" data-name="Контур 84" d="M-2980.923,2184.085a1.192,1.192,0,0,1-1.192-1.193v-5.82a1.193,1.193,0,0,1,1.192-1.193,1.193,1.193,0,0,1,1.193,1.193v5.82A1.193,1.193,0,0,1-2980.923,2184.085Z" fill="#fff"/>
    <path id="Контур_85" data-name="Контур 85" d="M-2956.788,2184.085a1.192,1.192,0,0,1-1.192-1.193v-5.82a1.193,1.193,0,0,1,1.192-1.193,1.193,1.193,0,0,1,1.193,1.193v5.82A1.193,1.193,0,0,1-2956.788,2184.085Z" fill="#fff"/>
    <path id="Контур_86" data-name="Контур 86" d="M-2968.855,2172.836a9.957,9.957,0,0,1-9.945-9.946,9.956,9.956,0,0,1,9.945-9.944,9.956,9.956,0,0,1,9.944,9.944A9.957,9.957,0,0,1-2968.855,2172.836Zm0-17.5a7.568,7.568,0,0,0-7.56,7.559,7.568,7.568,0,0,0,7.56,7.561,7.568,7.568,0,0,0,7.559-7.561A7.568,7.568,0,0,0-2968.855,2155.331Z" fill="#fff"/>
    <path id="Контур_87" data-name="Контур 87" d="M-2968.855,2168.62a5.736,5.736,0,0,1-5.729-5.73,5.735,5.735,0,0,1,5.729-5.728,5.735,5.735,0,0,1,5.729,5.728A5.736,5.736,0,0,1-2968.855,2168.62Zm0-9.073a3.347,3.347,0,0,0-3.344,3.343,3.348,3.348,0,0,0,3.344,3.345,3.348,3.348,0,0,0,3.344-3.345A3.347,3.347,0,0,0-2968.855,2159.547Z" fill="#fff"/>
  </g>
</svg>
