<svg xmlns="http://www.w3.org/2000/svg" width="65.719" height="59.693" viewBox="0 0 65.719 59.693">
  <g id="adv_icon_2" transform="translate(3897.5 -2145.012)">
    <path id="Контур_29" data-name="Контур 29" d="M-3841.178,2198.124H-3888.1a4.278,4.278,0,0,1-4.2-3.483l-5.176-27.51a1.193,1.193,0,0,1,.254-.981,1.192,1.192,0,0,1,.918-.432h8.878a1.192,1.192,0,0,1,1.192,1.193,1.192,1.192,0,0,1-1.192,1.192h-7.44l4.91,26.1a1.89,1.89,0,0,0,1.857,1.539h46.924a1.888,1.888,0,0,0,1.856-1.539l4.911-26.1h-22.13a1.192,1.192,0,0,1-1.192-1.192,1.192,1.192,0,0,1,1.192-1.193h23.568a1.191,1.191,0,0,1,.918.432,1.189,1.189,0,0,1,.254.981l-5.177,27.509A4.276,4.276,0,0,1-3841.178,2198.124Z" fill="#fff"/>
    <path id="Контур_30" data-name="Контур 30" d="M-3861.787,2154.424h-14.961a3.5,3.5,0,0,1-3.5-3.5v-2.42a3.5,3.5,0,0,1,3.5-3.5h14.961a3.5,3.5,0,0,1,3.5,3.5v2.42A3.5,3.5,0,0,1-3861.787,2154.424Zm-14.961-7.028a1.112,1.112,0,0,0-1.111,1.112v2.42a1.112,1.112,0,0,0,1.111,1.111h14.961a1.113,1.113,0,0,0,1.112-1.111v-2.42a1.114,1.114,0,0,0-1.112-1.112Z" fill="#fff"/>
    <path id="Контур_31" data-name="Контур 31" d="M-3894.311,2175.781c-.191,0-.384,0-.579-.007a1.192,1.192,0,0,1-1.166-1.218,1.173,1.173,0,0,1,1.218-1.166q.582.012,1.138,0a16.528,16.528,0,0,0,15.76-16.621v-3.536a1.192,1.192,0,0,1,1.192-1.192,1.193,1.193,0,0,1,1.193,1.192v3.536c0,10.215-8.112,18.74-18.082,19C-3893.859,2175.778-3894.084,2175.781-3894.311,2175.781Z" fill="#fff"/>
    <path id="Контур_32" data-name="Контур 32" d="M-3836.558,2175.83c-8.331,0-14.892-2.249-19.525-6.7a23.64,23.64,0,0,1-6.9-15.906,1.22,1.22,0,0,1,1.2-1.187,1.193,1.193,0,0,1,1.187,1.2c0,.083.061,8.335,6.185,14.2,4.543,4.348,11.249,6.351,19.937,5.964a1.185,1.185,0,0,1,1.245,1.138,1.192,1.192,0,0,1-1.137,1.244Q-3835.481,2175.83-3836.558,2175.83Z" fill="#fff"/>
    <path id="Контур_33" data-name="Контур 33" d="M-3879.678,2182.655h-4.338a1.193,1.193,0,0,1-1.193-1.193,1.193,1.193,0,0,1,1.193-1.193h4.338a1.192,1.192,0,0,1,1.192,1.193A1.193,1.193,0,0,1-3879.678,2182.655Z" fill="#fff"/>
    <path id="Контур_34" data-name="Контур 34" d="M-3867.46,2190.246h-4.338a1.193,1.193,0,0,1-1.193-1.193,1.192,1.192,0,0,1,1.193-1.192h4.338a1.192,1.192,0,0,1,1.193,1.192A1.193,1.193,0,0,1-3867.46,2190.246Z" fill="#fff"/>
    <path id="Контур_35" data-name="Контур 35" d="M-3860.3,2176.943h-4.338a1.193,1.193,0,0,1-1.193-1.192,1.193,1.193,0,0,1,1.193-1.193h4.338a1.192,1.192,0,0,1,1.192,1.193A1.192,1.192,0,0,1-3860.3,2176.943Z" fill="#fff"/>
    <path id="Контур_36" data-name="Контур 36" d="M-3867.1,2164.291h-4.338a1.193,1.193,0,0,1-1.193-1.193,1.192,1.192,0,0,1,1.193-1.192h4.338a1.192,1.192,0,0,1,1.192,1.192A1.193,1.193,0,0,1-3867.1,2164.291Z" fill="#fff"/>
    <path id="Контур_37" data-name="Контур 37" d="M-3846.71,2186.92h-4.338a1.192,1.192,0,0,1-1.193-1.192,1.193,1.193,0,0,1,1.193-1.193h4.338a1.193,1.193,0,0,1,1.193,1.193A1.192,1.192,0,0,1-3846.71,2186.92Z" fill="#fff"/>
    <path id="Контур_38" data-name="Контур 38" d="M-3849.719,2204.705h-29.842a4.278,4.278,0,0,1-4.274-4.273v-3.5a1.192,1.192,0,0,1,1.192-1.193,1.193,1.193,0,0,1,1.193,1.193v3.5a1.89,1.89,0,0,0,1.889,1.888h29.842a1.89,1.89,0,0,0,1.889-1.888v-3.5a1.193,1.193,0,0,1,1.192-1.193,1.193,1.193,0,0,1,1.193,1.193v3.5A4.278,4.278,0,0,1-3849.719,2204.705Z" fill="#fff"/>
  </g>
</svg>
