<svg xmlns="http://www.w3.org/2000/svg" width="67.151" height="65.527" viewBox="0 0 67.151 65.527">
  <g id="adv_icon_1" transform="translate(4200.933 -2142.095)">
    <path id="Контур_3" data-name="Контур 3" d="M-4176.66,2197.772h-16.509a7.773,7.773,0,0,1-7.764-7.764v-30.3a7.772,7.772,0,0,1,7.764-7.763h16.509a7.771,7.771,0,0,1,7.763,7.763v30.3A7.772,7.772,0,0,1-4176.66,2197.772Zm-16.509-43.441a5.385,5.385,0,0,0-5.379,5.378v30.3a5.385,5.385,0,0,0,5.379,5.379h16.509a5.384,5.384,0,0,0,5.378-5.379v-30.3a5.384,5.384,0,0,0-5.378-5.378Z" fill="#fff"/>
    <path id="Контур_4" data-name="Контур 4" d="M-4184.409,2160.9h-15.331a1.193,1.193,0,0,1-1.193-1.193,1.193,1.193,0,0,1,1.193-1.192h15.331a1.193,1.193,0,0,1,1.192,1.192A1.193,1.193,0,0,1-4184.409,2160.9Z" fill="#fff"/>
    <path id="Контур_5" data-name="Контур 5" d="M-4170.089,2191.2h-17.674a1.193,1.193,0,0,1-1.193-1.192,1.193,1.193,0,0,1,1.193-1.193h17.674a1.193,1.193,0,0,1,1.192,1.193A1.192,1.192,0,0,1-4170.089,2191.2Z" fill="#fff"/>
    <path id="Контур_6" data-name="Контур 6" d="M-4192.83,2191.2h-6.91a1.193,1.193,0,0,1-1.193-1.192,1.193,1.193,0,0,1,1.193-1.193h6.91a1.193,1.193,0,0,1,1.193,1.193A1.192,1.192,0,0,1-4192.83,2191.2Z" fill="#fff"/>
    <path id="Контур_7" data-name="Контур 7" d="M-4170.089,2160.9h-9.176a1.193,1.193,0,0,1-1.192-1.193,1.192,1.192,0,0,1,1.192-1.192h9.176a1.192,1.192,0,0,1,1.192,1.192A1.193,1.193,0,0,1-4170.089,2160.9Z" fill="#fff"/>
    <path id="Контур_8" data-name="Контур 8" d="M-4184.915,2184.168a9.32,9.32,0,0,1-9.309-9.309,9.321,9.321,0,0,1,9.309-9.31,9.32,9.32,0,0,1,9.31,9.31A9.32,9.32,0,0,1-4184.915,2184.168Zm0-16.234a6.932,6.932,0,0,0-6.924,6.925,6.932,6.932,0,0,0,6.924,6.924,6.932,6.932,0,0,0,6.925-6.924A6.932,6.932,0,0,0-4184.915,2167.934Z" fill="#fff"/>
    <path id="Контур_9" data-name="Контур 9" d="M-4176.8,2176.052h-8.117a1.192,1.192,0,0,1-1.192-1.193v-8.118a1.192,1.192,0,0,1,1.192-1.192,1.192,1.192,0,0,1,1.193,1.192v6.926h6.924a1.192,1.192,0,0,1,1.193,1.192A1.193,1.193,0,0,1-4176.8,2176.052Z" fill="#fff"/>
    <path id="Контур_10" data-name="Контур 10" d="M-4195.687,2154.548c-.037,0-.074,0-.111-.005a1.193,1.193,0,0,1-1.078-1.3l.933-10.068a1.192,1.192,0,0,1,1.187-1.083h4.34a1.193,1.193,0,0,1,1.193,1.193v9.64a1.192,1.192,0,0,1-1.193,1.192,1.192,1.192,0,0,1-1.192-1.192v-8.448h-2.061l-.832,8.985A1.193,1.193,0,0,1-4195.687,2154.548Z" fill="#fff"/>
    <path id="Контур_11" data-name="Контур 11" d="M-4174.142,2154.548a1.193,1.193,0,0,1-1.186-1.083l-.832-8.985h-2.061v8.448a1.191,1.191,0,0,1-1.192,1.192,1.192,1.192,0,0,1-1.193-1.192v-9.64a1.193,1.193,0,0,1,1.193-1.193h4.34a1.194,1.194,0,0,1,1.188,1.083l.931,10.068a1.192,1.192,0,0,1-1.077,1.3C-4174.068,2154.546-4174.106,2154.548-4174.142,2154.548Z" fill="#fff"/>
    <path id="Контур_12" data-name="Контур 12" d="M-4164.625,2144.48h-35.115a1.192,1.192,0,0,1-1.193-1.192,1.193,1.193,0,0,1,1.193-1.193h35.115a1.192,1.192,0,0,1,1.192,1.193A1.191,1.191,0,0,1-4164.625,2144.48Z" fill="#fff"/>
    <path id="Контур_13" data-name="Контур 13" d="M-4175.073,2207.622h-4.34a1.193,1.193,0,0,1-1.193-1.193v-9.639a1.193,1.193,0,0,1,1.193-1.192,1.192,1.192,0,0,1,1.192,1.192v8.447h2.061l.832-8.984a1.2,1.2,0,0,1,1.3-1.078,1.192,1.192,0,0,1,1.077,1.3l-.931,10.067A1.194,1.194,0,0,1-4175.073,2207.622Z" fill="#fff"/>
    <path id="Контур_14" data-name="Контур 14" d="M-4190.416,2207.622h-4.34a1.192,1.192,0,0,1-1.187-1.083l-.933-10.067a1.193,1.193,0,0,1,1.078-1.3,1.2,1.2,0,0,1,1.3,1.078l.832,8.984h2.061v-8.447a1.192,1.192,0,0,1,1.192-1.192,1.193,1.193,0,0,1,1.193,1.192v9.639A1.193,1.193,0,0,1-4190.416,2207.622Z" fill="#fff"/>
    <path id="Контур_15" data-name="Контур 15" d="M-4170.089,2207.622h-29.651a1.193,1.193,0,0,1-1.193-1.193,1.192,1.192,0,0,1,1.193-1.192h29.651a1.192,1.192,0,0,1,1.192,1.192A1.193,1.193,0,0,1-4170.089,2207.622Z" fill="#fff"/>
    <path id="Контур_16" data-name="Контур 16" d="M-4141.546,2197.772h-16.508a7.772,7.772,0,0,1-7.763-7.764v-30.3a7.771,7.771,0,0,1,7.763-7.763h16.508a7.772,7.772,0,0,1,7.764,7.763v30.3A7.773,7.773,0,0,1-4141.546,2197.772Zm-16.508-43.441a5.385,5.385,0,0,0-5.379,5.378v30.3a5.386,5.386,0,0,0,5.379,5.379h16.508a5.385,5.385,0,0,0,5.379-5.379v-30.3a5.385,5.385,0,0,0-5.379-5.378Z" fill="#fff"/>
    <path id="Контур_17" data-name="Контур 17" d="M-4149.294,2160.9h-15.331a1.192,1.192,0,0,1-1.192-1.193,1.192,1.192,0,0,1,1.192-1.192h15.331a1.192,1.192,0,0,1,1.192,1.192A1.193,1.193,0,0,1-4149.294,2160.9Z" fill="#fff"/>
    <path id="Контур_18" data-name="Контур 18" d="M-4134.974,2191.2h-17.674a1.192,1.192,0,0,1-1.193-1.192,1.193,1.193,0,0,1,1.193-1.193h17.674a1.192,1.192,0,0,1,1.192,1.193A1.192,1.192,0,0,1-4134.974,2191.2Z" fill="#fff"/>
    <path id="Контур_19" data-name="Контур 19" d="M-4157.715,2191.2h-6.91a1.192,1.192,0,0,1-1.192-1.192,1.192,1.192,0,0,1,1.192-1.193h6.91a1.193,1.193,0,0,1,1.192,1.193A1.192,1.192,0,0,1-4157.715,2191.2Z" fill="#fff"/>
    <path id="Контур_20" data-name="Контур 20" d="M-4134.974,2160.9h-9.176a1.193,1.193,0,0,1-1.193-1.193,1.192,1.192,0,0,1,1.193-1.192h9.176a1.192,1.192,0,0,1,1.192,1.192A1.192,1.192,0,0,1-4134.974,2160.9Z" fill="#fff"/>
    <path id="Контур_21" data-name="Контур 21" d="M-4149.8,2184.168a9.319,9.319,0,0,1-9.309-9.309,9.32,9.32,0,0,1,9.309-9.31,9.32,9.32,0,0,1,9.31,9.31A9.32,9.32,0,0,1-4149.8,2184.168Zm0-16.234a6.932,6.932,0,0,0-6.924,6.925,6.932,6.932,0,0,0,6.924,6.924,6.932,6.932,0,0,0,6.925-6.924A6.932,6.932,0,0,0-4149.8,2167.934Z" fill="#fff"/>
    <path id="Контур_22" data-name="Контур 22" d="M-4141.683,2176.052h-8.117a1.193,1.193,0,0,1-1.192-1.193v-8.118a1.193,1.193,0,0,1,1.192-1.192,1.193,1.193,0,0,1,1.193,1.192v6.926h6.924a1.192,1.192,0,0,1,1.193,1.192A1.193,1.193,0,0,1-4141.683,2176.052Z" fill="#fff"/>
    <path id="Контур_23" data-name="Контур 23" d="M-4160.572,2154.548c-.037,0-.074,0-.111-.005a1.194,1.194,0,0,1-1.078-1.3l.932-10.068a1.194,1.194,0,0,1,1.187-1.083h4.341a1.193,1.193,0,0,1,1.193,1.193v9.64a1.192,1.192,0,0,1-1.193,1.192,1.192,1.192,0,0,1-1.193-1.192v-8.448h-2.06l-.832,8.985A1.192,1.192,0,0,1-4160.572,2154.548Z" fill="#fff"/>
    <path id="Контур_24" data-name="Контур 24" d="M-4139.027,2154.548a1.192,1.192,0,0,1-1.186-1.083l-.832-8.985h-2.061v8.448a1.192,1.192,0,0,1-1.193,1.192,1.192,1.192,0,0,1-1.192-1.192v-9.64a1.193,1.193,0,0,1,1.192-1.193h4.341a1.192,1.192,0,0,1,1.187,1.083l.932,10.068a1.192,1.192,0,0,1-1.077,1.3C-4138.953,2154.546-4138.991,2154.548-4139.027,2154.548Z" fill="#fff"/>
    <path id="Контур_25" data-name="Контур 25" d="M-4134.974,2144.48h-29.651a1.191,1.191,0,0,1-1.192-1.192,1.192,1.192,0,0,1,1.192-1.193h29.651a1.192,1.192,0,0,1,1.192,1.193A1.191,1.191,0,0,1-4134.974,2144.48Z" fill="#fff"/>
    <path id="Контур_26" data-name="Контур 26" d="M-4139.958,2207.622h-4.341a1.193,1.193,0,0,1-1.192-1.193v-9.639a1.193,1.193,0,0,1,1.192-1.192,1.193,1.193,0,0,1,1.193,1.192v8.447h2.061l.832-8.984a1.2,1.2,0,0,1,1.3-1.078,1.192,1.192,0,0,1,1.077,1.3l-.932,10.067A1.192,1.192,0,0,1-4139.958,2207.622Z" fill="#fff"/>
    <path id="Контур_27" data-name="Контур 27" d="M-4155.3,2207.622h-4.341a1.194,1.194,0,0,1-1.187-1.083l-.932-10.067a1.194,1.194,0,0,1,1.078-1.3,1.2,1.2,0,0,1,1.3,1.078l.832,8.984h2.06v-8.447a1.193,1.193,0,0,1,1.193-1.192,1.193,1.193,0,0,1,1.193,1.192v9.639A1.193,1.193,0,0,1-4155.3,2207.622Z" fill="#fff"/>
    <path id="Контур_28" data-name="Контур 28" d="M-4134.974,2207.622h-35.889a1.193,1.193,0,0,1-1.193-1.193,1.192,1.192,0,0,1,1.193-1.192h35.889a1.191,1.191,0,0,1,1.192,1.192A1.192,1.192,0,0,1-4134.974,2207.622Z" fill="#fff"/>
  </g>
</svg>
