<svg xmlns="http://www.w3.org/2000/svg" width="67.416" height="68.427" viewBox="0 0 67.416 68.427">
  <g id="adv_icon_4" transform="translate(3292.914 -2140.645)">
    <path id="Контур_57" data-name="Контур 57" d="M-3283.931,2209.072h-7.79a1.193,1.193,0,0,1-1.193-1.192v-62.147a5.094,5.094,0,0,1,5.088-5.088,5.093,5.093,0,0,1,5.087,5.088v62.147A1.192,1.192,0,0,1-3283.931,2209.072Zm-6.6-2.385h5.4v-60.954a2.7,2.7,0,0,0-2.7-2.7,2.705,2.705,0,0,0-2.7,2.7Z" fill="#fff"/>
    <path id="Контур_58" data-name="Контур 58" d="M-3226.691,2209.072h-7.789a1.193,1.193,0,0,1-1.193-1.192v-62.147a5.093,5.093,0,0,1,5.088-5.088,5.093,5.093,0,0,1,5.087,5.088v62.147A1.193,1.193,0,0,1-3226.691,2209.072Zm-6.6-2.385h5.405v-60.954a2.7,2.7,0,0,0-2.7-2.7,2.705,2.705,0,0,0-2.7,2.7Z" fill="#fff"/>
    <path id="Контур_59" data-name="Контур 59" d="M-3234.48,2202.292h-49.451a1.193,1.193,0,0,1-1.193-1.193v-5.551a1.193,1.193,0,0,1,1.193-1.192h49.451a1.192,1.192,0,0,1,1.192,1.192v5.551A1.192,1.192,0,0,1-3234.48,2202.292Zm-48.259-2.386h47.066v-3.165h-47.066Z" fill="#fff"/>
    <path id="Контур_60" data-name="Контур 60" d="M-3234.48,2181.389h-49.451a1.193,1.193,0,0,1-1.193-1.193v-5.55a1.193,1.193,0,0,1,1.193-1.193h49.451a1.193,1.193,0,0,1,1.192,1.193v5.55A1.192,1.192,0,0,1-3234.48,2181.389Zm-48.259-2.385h47.066v-3.166h-47.066Z" fill="#fff"/>
    <path id="Контур_61" data-name="Контур 61" d="M-3267.693,2196.741h-9.744a3,3,0,0,1-3-3v-2.583a3.866,3.866,0,0,1,3.16-3.833,26.7,26.7,0,0,1,9.424,0,3.867,3.867,0,0,1,3.16,3.833v2.583A3,3,0,0,1-3267.693,2196.741Zm-4.872-7.45a24.316,24.316,0,0,0-4.292.382,1.483,1.483,0,0,0-1.2,1.485v2.583a.615.615,0,0,0,.615.615h9.744a.616.616,0,0,0,.615-.615v-2.583a1.484,1.484,0,0,0-1.2-1.485A24.336,24.336,0,0,0-3272.565,2189.291Z" fill="#fff"/>
    <path id="Контур_62" data-name="Контур 62" d="M-3254.334,2196.741h-9.744a3,3,0,0,1-3-3v-2.583a3.866,3.866,0,0,1,3.161-3.833,26.692,26.692,0,0,1,9.423,0,3.867,3.867,0,0,1,3.16,3.833v2.583A3,3,0,0,1-3254.334,2196.741Zm-4.872-7.45a24.328,24.328,0,0,0-4.292.382,1.5,1.5,0,0,0-1.2,1.485v2.583a.616.616,0,0,0,.615.615h9.744a.616.616,0,0,0,.615-.615v-2.583a1.484,1.484,0,0,0-1.2-1.485A24.316,24.316,0,0,0-3259.206,2189.291Z" fill="#fff"/>
    <path id="Контур_63" data-name="Контур 63" d="M-3240.974,2196.741h-9.744a3,3,0,0,1-3-3v-2.583a3.867,3.867,0,0,1,3.161-3.833,26.692,26.692,0,0,1,9.423,0,3.867,3.867,0,0,1,3.161,3.833v2.583A3,3,0,0,1-3240.974,2196.741Zm-4.872-7.45a24.316,24.316,0,0,0-4.292.382,1.5,1.5,0,0,0-1.2,1.485v2.583a.616.616,0,0,0,.616.615h9.744a.616.616,0,0,0,.615-.615v-2.583a1.484,1.484,0,0,0-1.2-1.485A24.336,24.336,0,0,0-3245.846,2189.291Z" fill="#fff"/>
    <path id="Контур_64" data-name="Контур 64" d="M-3267.693,2175.838h-9.744a3,3,0,0,1-3-3v-2.582a3.865,3.865,0,0,1,3.16-3.833,26.686,26.686,0,0,1,9.424,0,3.866,3.866,0,0,1,3.16,3.833v2.582A3,3,0,0,1-3267.693,2175.838Zm-4.872-7.449a24.224,24.224,0,0,0-4.292.382,1.483,1.483,0,0,0-1.2,1.485v2.582a.615.615,0,0,0,.615.615h9.744a.616.616,0,0,0,.615-.615v-2.582a1.485,1.485,0,0,0-1.2-1.485A24.244,24.244,0,0,0-3272.565,2168.389Z" fill="#fff"/>
    <path id="Контур_65" data-name="Контур 65" d="M-3254.334,2175.838h-9.744a3,3,0,0,1-3-3v-2.582a3.865,3.865,0,0,1,3.161-3.833,26.68,26.68,0,0,1,9.423,0,3.866,3.866,0,0,1,3.16,3.833v2.582A3,3,0,0,1-3254.334,2175.838Zm-4.872-7.449a24.236,24.236,0,0,0-4.292.382,1.5,1.5,0,0,0-1.2,1.485v2.582a.616.616,0,0,0,.615.615h9.744a.616.616,0,0,0,.615-.615v-2.582a1.484,1.484,0,0,0-1.2-1.485A24.224,24.224,0,0,0-3259.206,2168.389Z" fill="#fff"/>
    <path id="Контур_66" data-name="Контур 66" d="M-3240.974,2175.838h-9.744a3,3,0,0,1-3-3v-2.582a3.866,3.866,0,0,1,3.161-3.833,26.68,26.68,0,0,1,9.423,0,3.866,3.866,0,0,1,3.161,3.833v2.582A3,3,0,0,1-3240.974,2175.838Zm-4.872-7.449a24.224,24.224,0,0,0-4.292.382,1.5,1.5,0,0,0-1.2,1.485v2.582a.616.616,0,0,0,.616.615h9.744a.616.616,0,0,0,.615-.615v-2.582a1.485,1.485,0,0,0-1.2-1.485A24.244,24.244,0,0,0-3245.846,2168.389Z" fill="#fff"/>
    <path id="Контур_67" data-name="Контур 67" d="M-3234.48,2160.486h-49.451a1.193,1.193,0,0,1-1.193-1.192v-5.551a1.193,1.193,0,0,1,1.193-1.193h49.451a1.192,1.192,0,0,1,1.192,1.193v5.551A1.192,1.192,0,0,1-3234.48,2160.486Zm-48.259-2.385h47.066v-3.166h-47.066Z" fill="#fff"/>
    <path id="Контур_68" data-name="Контур 68" d="M-3267.693,2154.935h-9.744a3,3,0,0,1-3-3v-2.583a3.866,3.866,0,0,1,3.16-3.833,26.686,26.686,0,0,1,9.424,0,3.867,3.867,0,0,1,3.16,3.833v2.583A3,3,0,0,1-3267.693,2154.935Zm-4.872-7.449a24.338,24.338,0,0,0-4.292.382,1.483,1.483,0,0,0-1.2,1.485v2.583a.614.614,0,0,0,.615.614h9.744a.615.615,0,0,0,.615-.614v-2.583a1.485,1.485,0,0,0-1.2-1.485A24.359,24.359,0,0,0-3272.565,2147.486Z" fill="#fff"/>
    <path id="Контур_69" data-name="Контур 69" d="M-3254.334,2154.935h-9.744a3,3,0,0,1-3-3v-2.583a3.866,3.866,0,0,1,3.161-3.833,26.68,26.68,0,0,1,9.423,0,3.867,3.867,0,0,1,3.16,3.833v2.583A3,3,0,0,1-3254.334,2154.935Zm-4.872-7.449a24.351,24.351,0,0,0-4.292.382,1.5,1.5,0,0,0-1.2,1.485v2.583a.615.615,0,0,0,.615.614h9.744a.615.615,0,0,0,.615-.614v-2.583a1.484,1.484,0,0,0-1.2-1.485A24.338,24.338,0,0,0-3259.206,2147.486Z" fill="#fff"/>
    <path id="Контур_70" data-name="Контур 70" d="M-3240.974,2154.935h-9.744a3,3,0,0,1-3-3v-2.583a3.867,3.867,0,0,1,3.161-3.833,26.68,26.68,0,0,1,9.423,0,3.867,3.867,0,0,1,3.161,3.833v2.583A3,3,0,0,1-3240.974,2154.935Zm-4.872-7.449a24.338,24.338,0,0,0-4.292.382,1.5,1.5,0,0,0-1.2,1.485v2.583a.615.615,0,0,0,.616.614h9.744a.615.615,0,0,0,.615-.614v-2.583a1.485,1.485,0,0,0-1.2-1.485A24.359,24.359,0,0,0-3245.846,2147.486Z" fill="#fff"/>
    <path id="Контур_71" data-name="Контур 71" d="M-3272.565,2209.072h-11.366a1.193,1.193,0,0,1-1.193-1.192,1.193,1.193,0,0,1,1.193-1.193h11.366a1.192,1.192,0,0,1,1.192,1.193A1.192,1.192,0,0,1-3272.565,2209.072Z" fill="#fff"/>
    <path id="Контур_72" data-name="Контур 72" d="M-3234.48,2209.072h-11.366a1.193,1.193,0,0,1-1.193-1.192,1.193,1.193,0,0,1,1.193-1.193h11.366a1.192,1.192,0,0,1,1.192,1.193A1.192,1.192,0,0,1-3234.48,2209.072Z" fill="#fff"/>
  </g>
</svg>
