<svg xmlns="http://www.w3.org/2000/svg" width="62.786" height="69.039" viewBox="0 0 62.786 69.039">
  <g id="adv_icon_3" transform="translate(3593.316 -2140.339)">
    <path id="Контур_39" data-name="Контур 39" d="M-3545.634,2204.66h-10.646a1.192,1.192,0,0,1-1.192-1.192V2198.8h-8.9v4.671a1.192,1.192,0,0,1-1.192,1.192h-10.646a1.192,1.192,0,0,1-1.193-1.192V2198.8h-.378a7.1,7.1,0,0,1-7.014-6.15l-2.551-19.36a4.018,4.018,0,0,1-3.968-4.014,4.019,4.019,0,0,1,4.014-4.014h7.471a1.193,1.193,0,0,1,1.193,1.192,1.193,1.193,0,0,1-1.193,1.193h-7.471a1.631,1.631,0,0,0-1.629,1.629,1.631,1.631,0,0,0,1.629,1.63h1a1.191,1.191,0,0,1,1.182,1.037l2.688,20.4a4.7,4.7,0,0,0,4.649,4.077h1.571a1.192,1.192,0,0,1,1.192,1.192v4.671h8.261V2197.6a1.192,1.192,0,0,1,1.193-1.192h11.286a1.192,1.192,0,0,1,1.193,1.192v4.671h8.261V2197.6a1.192,1.192,0,0,1,1.192-1.192h1.571a4.7,4.7,0,0,0,4.649-4.077l2.687-20.4a1.193,1.193,0,0,1,1.183-1.037h1a1.631,1.631,0,0,0,1.629-1.63,1.631,1.631,0,0,0-1.629-1.629h-22.481a1.192,1.192,0,0,1-1.192-1.193,1.192,1.192,0,0,1,1.192-1.192h22.481a4.019,4.019,0,0,1,4.014,4.014,4.018,4.018,0,0,1-3.968,4.014l-2.551,19.359a7.094,7.094,0,0,1-7.014,6.151h-.378v4.671A1.192,1.192,0,0,1-3545.634,2204.66Z" fill="#fff"/>
    <path id="Контур_40" data-name="Контур 40" d="M-3566.221,2198.8h-11.991a1.193,1.193,0,0,1-1.193-1.193,1.192,1.192,0,0,1,1.193-1.192h11.991a1.192,1.192,0,0,1,1.192,1.192A1.193,1.193,0,0,1-3566.221,2198.8Z" fill="#fff"/>
    <path id="Контур_41" data-name="Контур 41" d="M-3545.634,2198.8h-11.991a1.192,1.192,0,0,1-1.192-1.193,1.191,1.191,0,0,1,1.192-1.192h11.991a1.192,1.192,0,0,1,1.193,1.192A1.193,1.193,0,0,1-3545.634,2198.8Z" fill="#fff"/>
    <path id="Контур_42" data-name="Контур 42" d="M-3535.943,2209.378h-51.96a1.191,1.191,0,0,1-1.192-1.192,1.192,1.192,0,0,1,1.192-1.193h51.96a1.192,1.192,0,0,1,1.192,1.193A1.191,1.191,0,0,1-3535.943,2209.378Z" fill="#fff"/>
    <path id="Контур_43" data-name="Контур 43" d="M-3535.943,2204.66h-51.96a1.191,1.191,0,0,1-1.192-1.192,1.192,1.192,0,0,1,1.192-1.193h51.96a1.192,1.192,0,0,1,1.192,1.193A1.191,1.191,0,0,1-3535.943,2204.66Z" fill="#fff"/>
    <path id="Контур_44" data-name="Контур 44" d="M-3556.107,2173.288h-32.2a1.193,1.193,0,0,1-1.193-1.193,1.193,1.193,0,0,1,1.193-1.192h32.2a1.192,1.192,0,0,1,1.193,1.192A1.193,1.193,0,0,1-3556.107,2173.288Z" fill="#fff"/>
    <path id="Контур_45" data-name="Контур 45" d="M-3535.544,2173.288h-13.2a1.193,1.193,0,0,1-1.193-1.193,1.192,1.192,0,0,1,1.193-1.192h13.2a1.192,1.192,0,0,1,1.192,1.192A1.193,1.193,0,0,1-3535.544,2173.288Z" fill="#fff"/>
    <path id="Контур_46" data-name="Контур 46" d="M-3576.7,2180.592h-10.639a1.193,1.193,0,0,1-1.192-1.193,1.192,1.192,0,0,1,1.192-1.192h10.639a1.191,1.191,0,0,1,1.192,1.192A1.192,1.192,0,0,1-3576.7,2180.592Z" fill="#fff"/>
    <path id="Контур_47" data-name="Контур 47" d="M-3536.628,2180.592h-32.232a1.193,1.193,0,0,1-1.192-1.193,1.192,1.192,0,0,1,1.192-1.192h32.232a1.192,1.192,0,0,1,1.193,1.192A1.193,1.193,0,0,1-3536.628,2180.592Z" fill="#fff"/>
    <path id="Контур_48" data-name="Контур 48" d="M-3578.921,2187.81a3.2,3.2,0,0,1-3.2-3.2,1.192,1.192,0,0,1,1.192-1.192,1.193,1.193,0,0,1,1.193,1.192.813.813,0,0,0,.812.813.814.814,0,0,0,.813-.813,1.192,1.192,0,0,1,1.192-1.192,1.193,1.193,0,0,1,1.193,1.192A3.2,3.2,0,0,1-3578.921,2187.81Z" fill="#fff"/>
    <path id="Контур_49" data-name="Контур 49" d="M-3563.7,2193.991a3.2,3.2,0,0,1-3.2-3.2,1.193,1.193,0,0,1,1.193-1.193,1.193,1.193,0,0,1,1.192,1.193.813.813,0,0,0,.812.812.813.813,0,0,0,.812-.812,1.193,1.193,0,0,1,1.193-1.193,1.193,1.193,0,0,1,1.193,1.193A3.2,3.2,0,0,1-3563.7,2193.991Z" fill="#fff"/>
    <path id="Контур_50" data-name="Контур 50" d="M-3548.834,2188.157a3.2,3.2,0,0,1-3.2-3.2,1.192,1.192,0,0,1,1.192-1.193,1.193,1.193,0,0,1,1.193,1.193.813.813,0,0,0,.812.812.813.813,0,0,0,.812-.812,1.193,1.193,0,0,1,1.193-1.193,1.193,1.193,0,0,1,1.192,1.193A3.2,3.2,0,0,1-3548.834,2188.157Z" fill="#fff"/>
    <path id="Контур_51" data-name="Контур 51" d="M-3558.132,2187.155h-8.487a1.193,1.193,0,0,1-1.193-1.193,1.192,1.192,0,0,1,1.193-1.192h8.487a1.192,1.192,0,0,1,1.193,1.192A1.193,1.193,0,0,1-3558.132,2187.155Z" fill="#fff"/>
    <path id="Контур_52" data-name="Контур 52" d="M-3572.694,2193.6h-6.227a1.193,1.193,0,0,1-1.192-1.193,1.193,1.193,0,0,1,1.192-1.192h6.227a1.192,1.192,0,0,1,1.192,1.192A1.192,1.192,0,0,1-3572.694,2193.6Z" fill="#fff"/>
    <path id="Контур_53" data-name="Контур 53" d="M-3543.716,2193.991h-6.227a1.192,1.192,0,0,1-1.192-1.192,1.193,1.193,0,0,1,1.192-1.193h6.227a1.193,1.193,0,0,1,1.192,1.193A1.192,1.192,0,0,1-3543.716,2193.991Z" fill="#fff"/>
    <path id="Контур_54" data-name="Контур 54" d="M-3569.164,2168.057a13.874,13.874,0,0,1-13.859-13.859,13.874,13.874,0,0,1,13.859-13.859A13.874,13.874,0,0,1-3555.3,2154.2,13.874,13.874,0,0,1-3569.164,2168.057Zm0-25.333a11.487,11.487,0,0,0-11.474,11.474,11.487,11.487,0,0,0,11.474,11.474,11.487,11.487,0,0,0,11.474-11.474A11.487,11.487,0,0,0-3569.164,2142.724Z" fill="#fff"/>
    <path id="Контур_55" data-name="Контур 55" d="M-3569.164,2163.661a9.473,9.473,0,0,1-9.463-9.463,9.473,9.473,0,0,1,9.463-9.463,9.474,9.474,0,0,1,9.463,9.463A9.474,9.474,0,0,1-3569.164,2163.661Zm0-16.541a7.086,7.086,0,0,0-7.078,7.078,7.086,7.086,0,0,0,7.078,7.078,7.086,7.086,0,0,0,7.078-7.078A7.086,7.086,0,0,0-3569.164,2147.12Z" fill="#fff"/>
    <path id="Контур_56" data-name="Контур 56" d="M-3567.3,2157.257a1.2,1.2,0,0,1-.844-.349l-1.866-1.867a1.193,1.193,0,0,1-.35-.843v-3.368a1.193,1.193,0,0,1,1.193-1.193,1.193,1.193,0,0,1,1.193,1.193v2.874l1.517,1.517a1.193,1.193,0,0,1,0,1.687A1.192,1.192,0,0,1-3567.3,2157.257Z" fill="#fff"/>
  </g>
</svg>
