<svg version="1.1" xmlns="http://www.w3.org/2000/svg" xmlns:xlink="http://www.w3.org/1999/xlink" width="25" height="25" viewBox="0 0 25 25"><path id="Cheese" d="M24.480,21.686 C23.225,21.852 21.971,22.028 20.717,22.202 C18.604,22.494 16.491,22.787 14.378,23.079 C12.583,23.327 10.787,23.571 8.992,23.820 C6.784,24.125 4.577,24.430 2.370,24.739 C1.787,24.820 1.206,24.913 0.625,25.000 C0.416,25.000 0.208,25.000 -0.000,25.000 C-0.000,24.115 -0.000,23.230 -0.000,22.344 C0.153,22.189 0.319,22.089 0.552,22.065 C1.455,21.973 2.076,21.292 2.080,20.423 C2.085,19.549 1.450,18.854 0.539,18.767 C0.290,18.743 0.118,18.648 -0.000,18.438 C-0.000,16.267 -0.000,14.097 -0.000,11.927 C0.070,11.854 0.134,11.774 0.210,11.708 C4.506,7.947 8.803,4.187 13.101,0.429 C13.275,0.277 13.464,0.142 13.646,-0.000 C13.906,-0.000 14.167,-0.000 14.427,-0.000 C14.771,0.041 15.115,0.072 15.457,0.125 C18.120,0.535 20.531,1.508 22.530,3.362 C23.593,4.347 24.382,5.515 24.750,6.934 C24.856,7.343 24.918,7.763 25.000,8.177 C25.000,12.569 25.000,16.962 25.000,21.354 C24.888,21.562 24.715,21.655 24.480,21.686 zM0.846,17.937 C2.347,18.310 2.884,19.409 2.912,20.363 C2.927,20.888 2.785,21.379 2.490,21.814 C2.092,22.399 1.527,22.743 0.845,22.886 C0.845,23.299 0.845,23.687 0.845,24.103 C8.635,23.028 16.391,21.958 24.149,20.887 C24.149,16.996 24.149,13.122 24.149,9.232 C16.367,10.305 8.605,11.376 0.846,12.447 C0.846,14.300 0.846,16.121 0.846,17.937 zM24.022,7.453 C23.656,5.759 22.668,4.466 21.332,3.430 C19.218,1.790 16.789,0.985 14.130,0.851 C14.002,0.845 13.838,0.902 13.741,0.987 C10.288,3.998 6.842,7.017 3.395,10.034 C2.868,10.495 2.342,10.955 1.815,11.416 C1.822,11.432 1.829,11.449 1.836,11.466 C9.266,10.441 16.696,9.416 24.171,8.385 C24.118,8.049 24.086,7.747 24.022,7.453 zM20.831,14.999 C19.698,14.997 18.764,14.070 18.752,12.933 C18.738,11.795 19.680,10.842 20.823,10.835 C21.965,10.827 22.913,11.769 22.916,12.913 C22.918,14.055 21.973,15.001 20.831,14.999 zM20.860,11.671 C20.173,11.655 19.596,12.217 19.587,12.910 C19.579,13.581 20.141,14.153 20.819,14.163 C21.491,14.172 22.067,13.612 22.080,12.936 C22.092,12.263 21.537,11.687 20.860,11.671 zM19.999,17.912 C20.001,18.606 19.436,19.170 18.742,19.166 C18.063,19.162 17.501,18.599 17.500,17.922 C17.499,17.233 18.070,16.664 18.758,16.666 C19.435,16.669 19.997,17.232 19.999,17.912 zM18.338,17.917 C18.341,18.144 18.528,18.330 18.752,18.330 C18.977,18.329 19.164,18.141 19.163,17.916 C19.163,17.692 18.975,17.505 18.749,17.504 C18.526,17.503 18.335,17.695 18.338,17.917 zM14.588,14.995 C14.136,14.998 13.756,14.622 13.755,14.172 C13.754,13.718 14.125,13.343 14.579,13.338 C15.029,13.334 15.408,13.709 15.411,14.162 C15.415,14.612 15.039,14.992 14.588,14.995 zM11.253,21.249 C9.889,21.257 8.749,20.116 8.751,18.747 C8.754,17.377 9.894,16.242 11.260,16.251 C12.624,16.260 13.747,17.383 13.749,18.740 C13.751,20.114 12.630,21.241 11.253,21.249 zM11.301,17.089 C10.396,17.050 9.621,17.787 9.588,18.719 C9.556,19.606 10.298,20.380 11.212,20.412 C12.103,20.444 12.875,19.708 12.912,18.794 C12.947,17.901 12.217,17.129 11.301,17.089 zM6.246,16.249 C5.328,16.246 4.574,15.482 4.584,14.566 C4.595,13.658 5.347,12.915 6.254,12.918 C7.172,12.921 7.926,13.685 7.915,14.601 C7.905,15.509 7.153,16.252 6.246,16.249 zM6.261,13.754 C5.811,13.749 5.428,14.122 5.420,14.573 C5.412,15.022 5.789,15.409 6.239,15.413 C6.689,15.418 7.072,15.045 7.080,14.593 C7.088,14.144 6.711,13.758 6.261,13.754 z" fill="#757575" /></svg>