<svg xmlns="http://www.w3.org/2000/svg" width="187.93" height="150.115" viewBox="0 0 187.93 150.115">
  <g id="logo" transform="translate(-865.828 -6.611)">
    <path id="Контур_1" data-name="Контур 1" d="M-3467.9,120.265c-1.925-6.559-7.818-12.273-16.165-15.677l-.007,0a35.666,35.666,0,0,0-9.909-2.637l-.177-.022c-.2-.85-.441-2.248-.7-3.7-.271-1.556-.609-3.493-1.072-5.918-.173-.9-.375-2.136-.589-3.447-.406-2.488-.763-4.609-1.133-6.337a3.637,3.637,0,0,0,1.5-2.923l.119-20.245a3.636,3.636,0,0,0-3.227-3.635l-.882-.1-4.428-22.651a3.637,3.637,0,0,0-3.57-2.94h0l-28.118.024a3.63,3.63,0,0,0-2.733,1.24,13.97,13.97,0,0,0-2.086-.8c-2.3-.646-15.125-1.334-19.281,1.075a24.919,24.919,0,0,0-3.385,2.4c-7.443-5.122-17.435-4.5-27.13-3.893-1.551.1-3.132.195-4.694.268l-.02-17.5a3.637,3.637,0,0,0-3.638-3.633h-52.264a3.637,3.637,0,0,0-3.638,3.633l-.024,22.7a3.639,3.639,0,0,0,1.064,2.575,3.636,3.636,0,0,0,2.314,1.057V78.125a3.638,3.638,0,0,0,3.638,3.638h15.8a33.83,33.83,0,0,0-3.524,14.556c-.626,13.335,4.2,29.5,19.612,34.865,4.849,1.69,9.888,1.488,14.758,1.291,2.246-.09,4.406-.177,6.433-.071a28.464,28.464,0,0,0,10.918,18.252c6.12,4.827,14.383,7.856,23.265,8.529q1.874.143,3.712.141c17.248,0,32.291-9.035,44.536-16.39l1.588-.952c.4-.236.918-.548,1.18-.67a10.024,10.024,0,0,1,1.245.342c13.248,4.252,30.1,4.976,37.655-5.75C-3467.418,130.889-3466.365,125.48-3467.9,120.265Z" transform="translate(4520.971 -2.6)" fill="#fff"/>
    <path id="Контур_2" data-name="Контур 2" d="M-3651.5,35.543h3.378V78.125h21.791c-3.164,6.114-5.472,9.421-5.876,18.365-.618,13.156,4.472,26.834,17.176,31.259,7.3,2.545,15.938.1,23.313,1.356.761,15.8,15.13,25.24,31.14,26.453,18.412,1.4,34.945-9.063,47.7-16.7,2.237-1.332,2.641-1.546,5.4-.666,10.9,3.5,26.93,5.043,33.567-4.377,7.588-10.8.095-21.125-11.514-25.859-14.155-5.733-10.61,3.069-14.059-14.963-.619-3.211-1.475-9.848-2.427-12.37,1.047-1.142-.309-.071,2.141-1.047l.119-20.244-3.14-.357a2.591,2.591,0,0,1-.405-.119l-4.924-25.192-28.118.023-.119,3.355c-1.713-.857-3.307-2.355-5.686-3.045-1.951-.547-13.631-.928-16.462.713a25.967,25.967,0,0,0-5.091,4.068c-8.254-8.136-22.813-4.805-35.588-4.686l-.024-21.244h-52.264Zm125.986,45.484,1.975.976-4.02,24.122,6.137.119,1.142-6c7.541-.071,3.83.928,6.161,5.828l10.206.19-5.781-31-15.8.024Zm5.829,14.678,3.449-.024c-.785-3.758-1.07-5.305-1.475-7.35-1,1.617-1.689,4.734-1.974,7.374Zm-71.676-55.143-.024,5.258,2.284.737.166,24.693,10.4.167.119-7.66c4.9-2.593,6.09-1.451,9.9-5.686,4.377-4.9,7.494-21.91-22.837-17.509Zm12.8,15.511c4.568-1.642,4.734-9.492.024-10.634Zm50.908-8.9-2.593,15.8c-.571,2.5-.4,2.949-3.211,3.045l.047,7.065c9.231.1,5.543.238,8.683-1.19,1.951-.88,7.066-.285,9.635-.428,1.784,1.832-.024,1.618,3.33,1.689,1.594.024,3.545-.047,5.139-.1l.214-6.542-1.285-.666c-2.093-1.332-2.474-7.113-3.259-11.2-.9-4.781-1.974-9.491-2.735-14.178l-15.82-.024c-.048,1.119-.19,3.4-.1,4.354.214,2.26.024,1.189.951,1.879Zm2.712,18.912,4.187-.071c-.951-7.494-1.284-10.61-1.808-14.7-1.189,3.235-2.022,9.492-2.379,14.773Zm-84.95,5.257c6.59.024,14.963,2.118,16.51-12.061.927-8.469-2.118-18.817-10.206-18.864-5.662-.024-8.54-.857-11.728,2.283a16.842,16.842,0,0,0-4.758,9.8,20.523,20.523,0,0,0,2,12.49,15.71,15.71,0,0,0,3.092,4.187c1.665,1.641,2.165,2.164,5.091,2.164Zm2.9-5.447c4.687-1.333,3.14-16.272,1.166-19.745-4.116.214-3.711,5.685-3.711,9.254,0,3.735.024,8.8,2.545,10.491Zm54.643,5.447c6.852.024,15.368,1.737,16.439-12.56.666-8.874-2.189-18.365-10.61-18.342-5.805,0-8.873-.808-11.871,2.617-8.849,10.087-3.33,28.238,6.042,28.285Zm2.9-25.287c-4.33,2.117-3.283,20.506.333,19.768,3.021-.618,4.258-18.008-.333-19.768Zm-95.394-18.223c.738,1.5-1.189-.214,1.951,1.071,1.213.5,1.07-.214,1.451,1.38l.048,41.131h17.556l-.024-37.325c-.024-2.379-.428-3.117,1.142-4.187,1.356-1.332,4.4-.714,5.638.238,1.213,1.57.856,3.283.856,5.662h10.444l-.1-16.177h-38.942Zm56.166,94.3-.024-8.517c-8.731-.452-18.222,2.95-19.459-12.251-.357-4.425.428-10.11,2.355-13.346,2.45-4.091,5.78-4.377,11.918-4.329v22.5c9.278.571,20.459,1.618,22.956-7.708l.119,7.756,11.015-.048-.024-30.711L-3573,75.27c-.072,7.8-.167,4.782,2.117,6.305l.047,12.108c-4.948-11.633-10.4-8.35-12.394-10.705-.88-2.545-.356-4.948-.356-7.708-6.9,0-24.741-.856-29.951,1.142-15.01,5.71-15.653,33.567-3.568,42.773,5.662,4.306,20.054,3.425,28.428,2.95Zm5.138-20.911c3.069-.5,3.664-2.022,3.664-5.186-.024-2.664-.524-4.4-3.212-5.4-1.047,2.26-.9,7.827-.452,10.586Zm27.453-25.882-.024,5.21,2.331.761c.286,2.926.666,26.215-.595,28.666-1.094,2.093-4.8,2.4-3.449,5.994,1.808,3.474,10.848-.666,17.152,2.784-4.472,3.235-26.43,7.3-29.308.5,1.356-2.046,2-1.023,2.522-3.4-3.545-5.233-19.365.833-17.343,15.487,1.261,9.04,10.777,14.844,20.007,16.819,11.276,2.45,21.648-.809,30.426-5.115,3.4-1.665,23.1-12.941,24.074-12.941.785,0,5.281,1.808,6.78,2.212a54.247,54.247,0,0,0,7.636,1.523c5.448.69,11.681.428,15.13-2.522,4.021-3.449,3.616-9.277.167-12.727-9.73-9.706-32.044-8.017-44.723-4.71-7.042,1.832-7.375,3.378-13.632-.785-4.258-2.831-5.186-8.445-4.234-14.749,9.849-2.26,15.035-9.754,11.728-17.39-3.235-7.446-16.081-6.518-24.645-5.614Zm12.893,15.8c4.116-1.832,4.877-10.539.238-10.872-.951,2.9-.714,7.851-.238,10.872Zm39.752,35.85c2.5,1.522,7.4,2.141,10.609,2.379,4.639.333,8.588.023,8.231-5.02-3.639-2.117-5.828-1.641-9.991-.547-2.831.714-6.875,1.546-8.849,3.188ZM-3648.6,32.569h3.4V75.223h25.669c-4.711,4.948-7.4,7.945-9.088,16.129a36.066,36.066,0,0,0,2.213,21.672c7.327,16.247,21.148,13.012,37.872,12.988-.69,8.184,1.189,12.228,6.185,17.414,4.424,4.567,13.845,8.564,21.79,9.182,16.653,1.309,30.379-7.232,41.536-13.583,12.584-7.184,5.923-4.258,19.887-1.856,26.216,4.52,30.355-13.892,19.674-22.6-4.33-3.5-11.4-5.733-17.152-6.566-.095-.024-1.618-.262-1.641-.262l-1.142-.452a1.127,1.127,0,0,1-.381-.19l-5.757-30.212,2.855-.166V62.353l-3.045-.309c-1.19-7.565-2.926-14.868-4.258-22.386-.69-3.949.237-3-9.944-3-4.044,0-9.421-.285-13.3.119l-.167,9.849c-2.64-3.331-3.4-10.087-13.607-9.944-11.133.166-9.825-1.047-16.533,6.946-3.283-3.354-4.259-5.995-12.085-7.041-5.353-.714-13.774-.214-19.293.238l-.9,2.355a2.078,2.078,0,0,1-.285.4c-1.047-1.832-3.521-2.688-6.019-2.974l-.024-20.767h-46.364Z" transform="translate(4520.971 -2.6)" fill="#c90d0f" fill-rule="evenodd"/>
  </g>
</svg>
